<?xml version="1.0" encoding="utf-8"?>
<!-- Generator: Adobe Illustrator 27.1.0, SVG Export Plug-In . SVG Version: 6.00 Build 0)  -->
<svg version="1.1" id="Capa_1" xmlns="http://www.w3.org/2000/svg" xmlns:xlink="http://www.w3.org/1999/xlink" x="0px" y="0px"
	 viewBox="0 0 200 200" style="enable-background:new 0 0 200 200;" xml:space="preserve">
<style type="text/css">
	.st0{fill:#007EA7;}
</style>
<path class="st0" d="M134.8,14.4c16.4,8.3,32.5,19.1,44.7,35c12.3,16,20.6,36.8,17.2,55.5s-18.5,35.2-33,52.8
	c-14.5,17.6-28.4,36-46,40.5c-17.7,4.5-38.9-5.1-59.7-12.7S16.7,172.1,8,158.4c-8.5-13.9-5.2-35.8-2.5-54.1c2.8-18.3,5-33.3,10-47.8
	c5.1-14.5,13-28.9,25-39.2S68.9,0.9,85.3,0.7C101.8,0.5,118.5,6.2,134.8,14.4z"/>
</svg>
