<?xml version="1.0" encoding="utf-8"?>
<!-- Generator: Adobe Illustrator 27.5.0, SVG Export Plug-In . SVG Version: 6.00 Build 0)  -->
<svg version="1.1" xmlns="http://www.w3.org/2000/svg" xmlns:xlink="http://www.w3.org/1999/xlink" x="0px" y="0px"
	 viewBox="0 0 750 500" style="enable-background:new 0 0 750 500;" xml:space="preserve">
<g id="BACKGROUND">
	<rect transform="matrix(-1 -1.224647e-16 1.224647e-16 -1 750 500)" style="fill:#FFFFFF;" width="750" height="500"/>
</g>
<g id="OBJECTS">
	<g>
		<g>
			<path style="fill:#D1F4F5;" d="M657.615,444.058H119.462C88.31,417.722,64.679,382.759,53.78,344
				c-5.35-19.025-7.794-38.811-7.357-58.529c0.207-9.325,1.735-18.467,2.252-27.693c0.547-9.754,2.731-19.425,6.44-28.5
				c2.159-5.284,4.928-10.493,9.267-14.297c4.34-3.804,10.512-5.997,16.14-4.492c10.176,2.722,14.653,15.404,25.51,16.729
				c9.191,1.121,16.146-9.222,15.495-18.226c-0.65-9.004-6.128-16.863-10.28-24.932c-16.686-32.433-11.486-74.371,12.646-101.998
				c24.132-27.627,65.786-39.327,101.306-28.457c23.705,7.255,43.625,23.196,66.728,32.107c35.478,13.685,75.688,9.72,112.433-0.297
				c36.746-10.017,71.644-25.769,108.42-35.68s77.045-13.64,112.397,0.351c30.767,12.177,55.629,37.783,66.403,68.392
				c10.775,30.609,7.277,65.695-9.342,93.711c-9.049,15.255-16.748,34.944-12.96,52.174c3.788,17.23,12.34,33.108,17.337,50.043
				C699.523,358.149,690.561,411.796,657.615,444.058z"/>
			<path style="fill:#D1F4F5;" d="M60.378,181.816c1.724,5.524,4.872,10.95,10.034,13.785c5.162,2.835,12.589,2.197,16.008-2.519
				c2.311-3.187,2.395-7.37,2.393-11.272c-0.004-6.676-0.008-13.352-0.012-20.028c-0.003-5.528-0.108-11.407-3.206-16.038
				c-6.019-8.996-16.331-5.735-20.843,1.893C58.676,157.908,56.814,170.401,60.378,181.816z"/>
		</g>
		<g>
			<g>
				<g>
					<g>
						<path style="fill:#5195A8;" d="M224.334,441.352c-15.879,5.622-33.236,7.006-49.805,3.974
							c-27.37-5.01-51.504-21.703-70.347-42.177c-18.842-20.474-33.028-44.709-47.061-68.736
							c56.146-6.087,115.477,15.478,154.807,56.007c5.901,6.081,11.47,12.696,14.803,20.486
							C230.065,418.696,227.8,433.62,224.334,441.352z"/>
						<path style="fill:#94CBCA;" d="M223.027,436.684c-19.26-17.173-39.712-32.782-61.198-46.789
							c-5.67-12.217-18.454-28.165-18.583-28.326c-0.343-0.427-0.962-0.491-1.394-0.151c-0.427,0.343-0.495,0.967-0.151,1.394
							c0.117,0.146,10.809,13.486,16.858,24.956c-9.831-6.302-19.879-12.264-30.13-17.884c-2.804-8.479-10.956-16.759-11.307-17.113
							c-0.385-0.388-1.014-0.39-1.402-0.005c-0.389,0.385-0.391,1.014-0.005,1.402c0.075,0.076,6.841,6.945,10.036,14.267
							c-13.611-7.356-27.563-14.129-41.854-20.255c-0.502-0.215-1.086,0.017-1.302,0.521c-0.216,0.503,0.017,1.086,0.521,1.302
							c15.055,6.453,29.737,13.618,44.032,21.441c0.001,0.001,0.002,0.001,0.004,0.002c0.178,0.098,0.358,0.192,0.537,0.29
							c-5.66-0.369-15.418-0.382-24.584,2.635c-0.524,0.17-0.802,0.732-0.632,1.252c0.171,0.52,0.732,0.803,1.252,0.632
							c12.513-4.117,26.646-2.329,28.317-2.096c16.196,9.096,31.871,19.065,46.976,29.876c-12.324-1.806-31.573-0.036-47.722,7.254
							c-0.491,0.224-0.721,0.812-0.496,1.312c0.226,0.499,0.813,0.721,1.312,0.496c17.795-8.033,39.378-9.227,50.764-6.282
							c13.412,9.79,26.374,20.24,38.832,31.348c0.342,0.305,0.837,0.33,1.203,0.09c0.071-0.047,0.138-0.103,0.198-0.17
							C223.471,437.675,223.436,437.048,223.027,436.684z"/>
						<path style="opacity:0.4;fill:#422C4F;" d="M155.152,429.723c16.417,9.706,35.79,13.499,54.859,13.84
							c2.416,0.043,4.83,0.033,7.243-0.022c2.386-0.642,4.75-1.364,7.08-2.189c3.467-7.732,5.731-22.656,2.398-30.447
							c-3.333-7.79-8.902-14.406-14.803-20.486c-29.826-30.734-71.155-50.549-113.873-55.683
							c3.947,16.234,8.701,32.278,15.925,47.307C123.21,401.247,136.811,418.879,155.152,429.723z"/>
					</g>
					<g>
						<path style="fill:#6CA8BC;" d="M204.538,443.772c-18.475-4.381-35.76-13.679-49.599-26.679
							c-22.86-21.475-35.515-52.036-40.846-82.944c-5.331-30.909-3.953-62.532-2.558-93.866
							c56.897,28.553,99.908,85.243,112.386,147.668c1.872,9.366,3.103,19.035,1.498,28.451
							C223.814,425.817,212.547,438.568,204.538,443.772z"/>
						<path style="fill:#94CBCA;" d="M201.357,427.371c-7.283-27.048-16.579-53.385-27.766-78.881
							c2.114-14.467-0.016-36.553-0.038-36.776c-0.058-0.592-0.582-1.017-1.176-0.966c-0.592,0.058-1.024,0.584-0.966,1.176
							c0.02,0.202,1.8,18.675,0.474,32.689c-5.182-11.569-10.764-22.958-16.733-34.156c2.494-9.368,0.013-21.735-0.096-22.265
							c-0.119-0.581-0.689-0.957-1.27-0.838c-0.582,0.119-0.958,0.688-0.838,1.271c0.023,0.114,2.085,10.375,0.633,18.925
							c-7.989-14.774-16.634-29.22-25.972-43.28c-0.328-0.493-0.996-0.63-1.492-0.301c-0.495,0.329-0.63,0.996-0.301,1.492
							c9.837,14.811,18.912,30.049,27.245,45.653c0.001,0.001,0.001,0.003,0.002,0.004c0.104,0.195,0.211,0.388,0.315,0.583
							c-4.921-3.701-13.777-9.513-23.895-12.223c-0.577-0.158-1.164,0.188-1.318,0.761c-0.154,0.574,0.187,1.165,0.761,1.318
							c13.813,3.7,25.586,13.727,26.965,14.932c9.303,17.891,17.612,36.264,24.904,55.064
							c-10.119-8.967-28.655-18.804-47.657-21.785c-0.579-0.088-1.138,0.309-1.23,0.897c-0.092,0.588,0.309,1.138,0.897,1.231
							c20.939,3.284,41.252,15.031,49.842,24.476c6.361,16.867,11.921,34.063,16.632,51.559c0.13,0.48,0.564,0.797,1.039,0.797
							c0.092,0,0.187-0.012,0.281-0.037C201.171,428.535,201.511,427.945,201.357,427.371z"/>
					</g>
				</g>
				<g>
					<g>
						<path style="fill:#5195A8;" d="M536.413,441.352c15.879,5.622,33.236,7.006,49.805,3.974
							c27.37-5.01,51.504-21.703,70.347-42.177c18.842-20.474,33.028-44.709,47.061-68.736
							c-56.146-6.087-115.477,15.478-154.807,56.007c-5.901,6.081-11.47,12.696-14.803,20.486
							C530.683,418.696,532.947,433.62,536.413,441.352z"/>
						<path style="fill:#94CBCA;" d="M537.72,436.684c19.26-17.173,39.712-32.782,61.198-46.789
							c5.67-12.217,18.454-28.165,18.584-28.326c0.343-0.427,0.962-0.491,1.394-0.151c0.427,0.343,0.495,0.967,0.151,1.394
							c-0.117,0.146-10.809,13.486-16.858,24.956c9.831-6.302,19.879-12.264,30.13-17.884c2.804-8.479,10.956-16.759,11.307-17.113
							c0.385-0.388,1.014-0.39,1.402-0.005c0.389,0.385,0.391,1.014,0.005,1.402c-0.075,0.076-6.841,6.945-10.036,14.267
							c13.611-7.356,27.563-14.129,41.854-20.255c0.501-0.215,1.086,0.017,1.302,0.521c0.216,0.503-0.017,1.086-0.521,1.302
							c-15.055,6.453-29.737,13.618-44.032,21.441c-0.001,0.001-0.002,0.001-0.004,0.002c-0.178,0.098-0.358,0.192-0.537,0.29
							c5.66-0.369,15.418-0.382,24.584,2.635c0.524,0.17,0.802,0.732,0.632,1.252c-0.171,0.52-0.732,0.803-1.252,0.632
							c-12.513-4.117-26.646-2.329-28.317-2.096c-16.196,9.096-31.871,19.065-46.976,29.876c12.323-1.806,31.573-0.036,47.722,7.254
							c0.491,0.224,0.721,0.812,0.496,1.312c-0.226,0.499-0.813,0.721-1.312,0.496c-17.795-8.033-39.378-9.227-50.764-6.282
							c-13.412,9.79-26.374,20.24-38.832,31.348c-0.342,0.305-0.837,0.33-1.203,0.09c-0.071-0.047-0.138-0.103-0.198-0.17
							C537.276,437.675,537.312,437.048,537.72,436.684z"/>
						<path style="opacity:0.4;fill:#422C4F;" d="M605.595,429.723c-16.417,9.706-35.791,13.499-54.859,13.84
							c-2.416,0.043-4.83,0.033-7.243-0.022c-2.386-0.642-4.75-1.364-7.08-2.189c-3.467-7.732-5.731-22.656-2.398-30.447
							c3.333-7.79,8.902-14.406,14.803-20.486c29.826-30.734,71.155-50.549,113.873-55.683
							c-3.947,16.234-8.701,32.278-15.925,47.307C637.537,401.247,623.937,418.879,605.595,429.723z"/>
					</g>
					<g>
						<path style="fill:#6CA8BC;" d="M556.209,443.772c18.475-4.381,35.76-13.679,49.599-26.679
							c22.86-21.475,35.515-52.036,40.846-82.944c5.331-30.909,3.953-62.532,2.558-93.866
							c-56.897,28.553-99.908,85.243-112.386,147.668c-1.872,9.366-3.103,19.035-1.498,28.451
							C536.933,425.817,548.2,438.568,556.209,443.772z"/>
						<path style="fill:#94CBCA;" d="M559.391,427.371c7.283-27.048,16.579-53.385,27.766-78.881
							c-2.114-14.467,0.016-36.553,0.038-36.776c0.058-0.592,0.582-1.017,1.176-0.966c0.592,0.058,1.024,0.584,0.966,1.176
							c-0.02,0.202-1.8,18.675-0.474,32.689c5.182-11.569,10.764-22.958,16.733-34.156c-2.494-9.368-0.013-21.735,0.096-22.265
							c0.119-0.581,0.689-0.957,1.27-0.838c0.582,0.119,0.958,0.688,0.838,1.271c-0.023,0.114-2.084,10.375-0.633,18.925
							c7.989-14.774,16.634-29.22,25.972-43.28c0.328-0.493,0.997-0.63,1.492-0.301c0.495,0.329,0.63,0.996,0.301,1.492
							c-9.837,14.811-18.912,30.049-27.245,45.653c-0.001,0.001-0.001,0.003-0.002,0.004c-0.104,0.195-0.211,0.388-0.315,0.583
							c4.921-3.701,13.777-9.513,23.895-12.223c0.577-0.158,1.164,0.188,1.318,0.761c0.154,0.574-0.187,1.165-0.761,1.318
							c-13.813,3.7-25.586,13.727-26.966,14.932c-9.303,17.891-17.612,36.264-24.904,55.064
							c10.119-8.967,28.655-18.804,47.657-21.785c0.579-0.088,1.138,0.309,1.23,0.897c0.092,0.588-0.309,1.138-0.897,1.231
							c-20.939,3.284-41.252,15.031-49.842,24.476c-6.361,16.867-11.921,34.063-16.632,51.559c-0.13,0.48-0.564,0.797-1.039,0.797
							c-0.092,0-0.187-0.012-0.281-0.037C559.576,428.535,559.236,427.945,559.391,427.371z"/>
					</g>
				</g>
			</g>
			<g>
				<g>
					<g>
						<path style="fill:#A34262;" d="M629.015,83.081c0-4.904-3.976-8.88-8.88-8.88H347.81c-4.904,0-8.879,3.975-8.879,8.88v23.025
							h290.084V83.081z"/>
						<path style="fill:#E4E4E0;" d="M338.931,106.105v142.135c0,4.904,3.975,8.88,8.879,8.88h272.325c4.904,0,8.88-3.976,8.88-8.88
							V106.105H338.931z"/>
					</g>
					<g>
						<path style="fill:#CC6164;" d="M647.161,83.081c0-4.904-3.975-8.88-8.88-8.88H365.956c-4.904,0-8.88,3.975-8.88,8.88v23.025
							h290.084V83.081z"/>
						<path style="fill:#FFFFFF;" d="M357.076,106.105v142.135c0,4.904,3.975,8.88,8.88,8.88h272.325c4.904,0,8.88-3.976,8.88-8.88
							V106.105H357.076z"/>
						<g>
							<path style="fill:#D1F4F5;" d="M578.39,215.125h-23.484c-3.433,0-6.216,2.783-6.216,6.216v9.831
								c0,3.433,2.783,6.216,6.216,6.216h23.484c3.433,0,6.216-2.783,6.216-6.216v-9.831
								C584.605,217.908,581.823,215.125,578.39,215.125z"/>
							<path style="fill:#6CA8BC;" d="M535.371,125.839h-23.484c-3.433,0-6.216,2.783-6.216,6.216v9.831
								c0,3.433,2.783,6.216,6.216,6.216h23.484c3.433,0,6.216-2.783,6.216-6.216v-9.831
								C541.586,128.622,538.804,125.839,535.371,125.839z"/>
							<path style="fill:#CC6164;" d="M578.39,185.363h-23.484c-3.433,0-6.216,2.783-6.216,6.216v9.831
								c0,3.433,2.783,6.216,6.216,6.216h23.484c3.433,0,6.216-2.783,6.216-6.216v-9.831
								C584.605,188.146,581.823,185.363,578.39,185.363z"/>
							<path style="fill:#D1F4F5;" d="M535.371,155.601h-23.484c-3.433,0-6.216,2.783-6.216,6.216v9.83
								c0,3.433,2.783,6.216,6.216,6.216h23.484c3.433,0,6.216-2.783,6.216-6.216v-9.83
								C541.586,158.384,538.804,155.601,535.371,155.601z"/>
							<path style="fill:#6CA8BC;" d="M492.352,125.839h-23.485c-3.433,0-6.216,2.783-6.216,6.216v9.831
								c0,3.433,2.783,6.216,6.216,6.216h23.485c3.433,0,6.216-2.783,6.216-6.216v-9.831
								C498.567,128.622,495.784,125.839,492.352,125.839z"/>
							<path style="fill:#D1F4F5;" d="M535.371,185.363h-23.484c-3.433,0-6.216,2.783-6.216,6.216v9.831
								c0,3.433,2.783,6.216,6.216,6.216h23.484c3.433,0,6.216-2.783,6.216-6.216v-9.831
								C541.586,188.146,538.804,185.363,535.371,185.363z"/>
							<path style="fill:#D1F4F5;" d="M621.41,155.601h-23.485c-3.433,0-6.216,2.783-6.216,6.216v9.83
								c0,3.433,2.783,6.216,6.216,6.216h23.485c3.433,0,6.216-2.783,6.216-6.216v-9.83
								C627.625,158.384,624.843,155.601,621.41,155.601z"/>
							<path style="fill:#D1F4F5;" d="M621.41,185.363h-23.485c-3.433,0-6.216,2.783-6.216,6.216v9.831
								c0,3.433,2.783,6.216,6.216,6.216h23.485c3.433,0,6.216-2.783,6.216-6.216v-9.831
								C627.625,188.146,624.843,185.363,621.41,185.363z"/>
							<path style="fill:#6CA8BC;" d="M621.41,125.839h-23.485c-3.433,0-6.216,2.783-6.216,6.216v9.831
								c0,3.433,2.783,6.216,6.216,6.216h23.485c3.433,0,6.216-2.783,6.216-6.216v-9.831
								C627.625,128.622,624.843,125.839,621.41,125.839z"/>
							<path style="fill:#6CA8BC;" d="M578.39,125.839h-23.484c-3.433,0-6.216,2.783-6.216,6.216v9.831
								c0,3.433,2.783,6.216,6.216,6.216h23.484c3.433,0,6.216-2.783,6.216-6.216v-9.831
								C584.605,128.622,581.823,125.839,578.39,125.839z"/>
							<path style="fill:#D1F4F5;" d="M621.41,215.125h-23.485c-3.433,0-6.216,2.783-6.216,6.216v9.831
								c0,3.433,2.783,6.216,6.216,6.216h23.485c3.433,0,6.216-2.783,6.216-6.216v-9.831
								C627.625,217.908,624.843,215.125,621.41,215.125z"/>
							<path style="fill:#D1F4F5;" d="M578.39,155.601h-23.484c-3.433,0-6.216,2.783-6.216,6.216v9.83
								c0,3.433,2.783,6.216,6.216,6.216h23.484c3.433,0,6.216-2.783,6.216-6.216v-9.83
								C584.605,158.384,581.823,155.601,578.39,155.601z"/>
							<path style="fill:#D1F4F5;" d="M535.371,215.125h-23.484c-3.433,0-6.216,2.783-6.216,6.216v9.831
								c0,3.433,2.783,6.216,6.216,6.216h23.484c3.433,0,6.216-2.783,6.216-6.216v-9.831
								C541.586,217.908,538.804,215.125,535.371,215.125z"/>
							<path style="fill:#D1F4F5;" d="M449.332,215.125h-23.484c-3.433,0-6.216,2.783-6.216,6.216v9.831
								c0,3.433,2.783,6.216,6.216,6.216h23.484c3.433,0,6.216-2.783,6.216-6.216v-9.831
								C455.547,217.908,452.764,215.125,449.332,215.125z"/>
							<path style="fill:#CC6164;" d="M406.313,125.839h-23.485c-3.433,0-6.216,2.783-6.216,6.216v9.831
								c0,3.433,2.783,6.216,6.216,6.216h23.485c3.433,0,6.216-2.783,6.216-6.216v-9.831
								C412.528,128.622,409.745,125.839,406.313,125.839z"/>
							<path style="fill:#EBA7AC;" d="M406.313,155.601h-23.485c-3.433,0-6.216,2.783-6.216,6.216v9.83
								c0,3.433,2.783,6.216,6.216,6.216h23.485c3.433,0,6.216-2.783,6.216-6.216v-9.83
								C412.528,158.384,409.745,155.601,406.313,155.601z"/>
							<path style="fill:#EBA7AC;" d="M406.313,215.125h-23.485c-3.433,0-6.216,2.783-6.216,6.216v9.831
								c0,3.433,2.783,6.216,6.216,6.216h23.485c3.433,0,6.216-2.783,6.216-6.216v-9.831
								C412.528,217.908,409.745,215.125,406.313,215.125z"/>
							<path style="fill:#EBA7AC;" d="M406.313,185.363h-23.485c-3.433,0-6.216,2.783-6.216,6.216v9.831
								c0,3.433,2.783,6.216,6.216,6.216h23.485c3.433,0,6.216-2.783,6.216-6.216v-9.831
								C412.528,188.146,409.745,185.363,406.313,185.363z"/>
							<path style="fill:#D1F4F5;" d="M449.332,185.363h-23.484c-3.433,0-6.216,2.783-6.216,6.216v9.831
								c0,3.433,2.783,6.216,6.216,6.216h23.484c3.433,0,6.216-2.783,6.216-6.216v-9.831
								C455.547,188.146,452.764,185.363,449.332,185.363z"/>
							<path style="fill:#D1F4F5;" d="M492.352,215.125h-23.485c-3.433,0-6.216,2.783-6.216,6.216v9.831
								c0,3.433,2.783,6.216,6.216,6.216h23.485c3.433,0,6.216-2.783,6.216-6.216v-9.831
								C498.567,217.908,495.784,215.125,492.352,215.125z"/>
							<path style="fill:#D1F4F5;" d="M492.352,185.363h-23.485c-3.433,0-6.216,2.783-6.216,6.216v9.831
								c0,3.433,2.783,6.216,6.216,6.216h23.485c3.433,0,6.216-2.783,6.216-6.216v-9.831
								C498.567,188.146,495.784,185.363,492.352,185.363z"/>
							<path style="fill:#6CA8BC;" d="M449.332,125.839h-23.484c-3.433,0-6.216,2.783-6.216,6.216v9.831
								c0,3.433,2.783,6.216,6.216,6.216h23.484c3.433,0,6.216-2.783,6.216-6.216v-9.831
								C455.547,128.622,452.764,125.839,449.332,125.839z"/>
							<path style="fill:#D1F4F5;" d="M492.352,155.601h-23.485c-3.433,0-6.216,2.783-6.216,6.216v9.83
								c0,3.433,2.783,6.216,6.216,6.216h23.485c3.433,0,6.216-2.783,6.216-6.216v-9.83
								C498.567,158.384,495.784,155.601,492.352,155.601z"/>
							<path style="fill:#D1F4F5;" d="M449.332,155.601h-23.484c-3.433,0-6.216,2.783-6.216,6.216v9.83
								c0,3.433,2.783,6.216,6.216,6.216h23.484c3.433,0,6.216-2.783,6.216-6.216v-9.83
								C455.547,158.384,452.764,155.601,449.332,155.601z"/>
						</g>
					</g>
					<g>
						<g>
							<g>
								<path style="fill:#422C4F;" d="M393.393,96.48L393.393,96.48c-1.962,0-3.552-1.59-3.552-3.552V86.12
									c0-1.962,1.59-3.552,3.552-3.552l0,0c1.962,0,3.552,1.59,3.552,3.552v6.808C396.945,94.89,395.354,96.48,393.393,96.48z"/>
								<path style="fill:#C7D2D7;" d="M394.076,46.563c-8.211,0-14.891,6.68-14.891,14.89v12.748h6.216V61.454
									c0-4.783,3.892-8.674,8.675-8.674s8.674,3.891,8.674,8.674v16.363c0,4.783-3.891,8.674-8.674,8.674h-4.235v6.216h4.235
									c8.21,0,14.89-6.68,14.89-14.89V61.454C408.966,53.243,402.286,46.563,394.076,46.563z"/>
								<path style="fill:#99A3B0;" d="M379.185,74.201h6.216V61.454l0,0c-1.118,0-2.025,0.907-2.025,2.025v4.131
									c0,1.119-0.907,2.025-2.025,2.025h-2.165V74.201z"/>
								<path style="fill:#99A3B0;" d="M404.234,78.869v-5.921c0-0.82-0.664-1.484-1.484-1.484v6.353
									c0,4.783-3.891,8.674-8.674,8.674h-4.235v3.034h3.738C399.463,89.524,404.234,84.754,404.234,78.869z"/>
							</g>
						</g>
						<g>
							<g>
								<path style="fill:#422C4F;" d="M438.179,96.48L438.179,96.48c-1.962,0-3.552-1.59-3.552-3.552V86.12
									c0-1.962,1.59-3.552,3.552-3.552l0,0c1.962,0,3.552,1.59,3.552,3.552v6.808C441.731,94.89,440.14,96.48,438.179,96.48z"/>
								<path style="fill:#C7D2D7;" d="M438.862,46.563c-8.211,0-14.891,6.68-14.891,14.89v12.748h6.216V61.454
									c0-4.783,3.892-8.674,8.675-8.674s8.674,3.891,8.674,8.674v16.363c0,4.783-3.891,8.674-8.674,8.674h-4.235v6.216h4.235
									c8.21,0,14.89-6.68,14.89-14.89V61.454C453.752,53.243,447.072,46.563,438.862,46.563z"/>
								<path style="fill:#99A3B0;" d="M423.971,74.201h6.216V61.454l0,0c-1.118,0-2.025,0.907-2.025,2.025v4.131
									c0,1.119-0.907,2.025-2.025,2.025h-2.165V74.201z"/>
								<path style="fill:#99A3B0;" d="M449.02,78.869v-5.921c0-0.82-0.664-1.484-1.484-1.484v6.353
									c0,4.783-3.891,8.674-8.674,8.674h-4.235v3.034h3.737C444.249,89.524,449.02,84.754,449.02,78.869z"/>
							</g>
						</g>
						<g>
							<g>
								<path style="fill:#422C4F;" d="M482.965,96.48L482.965,96.48c-1.962,0-3.552-1.59-3.552-3.552V86.12
									c0-1.962,1.59-3.552,3.552-3.552l0,0c1.962,0,3.552,1.59,3.552,3.552v6.808C486.517,94.89,484.926,96.48,482.965,96.48z"/>
								<path style="fill:#C7D2D7;" d="M483.648,46.563c-8.211,0-14.891,6.68-14.891,14.89v12.748h6.216V61.454
									c0-4.783,3.892-8.674,8.675-8.674s8.674,3.891,8.674,8.674v16.363c0,4.783-3.891,8.674-8.674,8.674h-4.235v6.216h4.235
									c8.21,0,14.89-6.68,14.89-14.89V61.454C498.537,53.243,491.858,46.563,483.648,46.563z"/>
								<path style="fill:#99A3B0;" d="M468.757,74.201h6.216V61.454l0,0c-1.118,0-2.025,0.907-2.025,2.025v4.131
									c0,1.119-0.907,2.025-2.025,2.025h-2.165V74.201z"/>
								<path style="fill:#99A3B0;" d="M493.806,78.869v-5.921c0-0.82-0.664-1.484-1.484-1.484v6.353
									c0,4.783-3.891,8.674-8.674,8.674h-4.235v3.034h3.737C489.035,89.524,493.806,84.754,493.806,78.869z"/>
							</g>
						</g>
						<g>
							<g>
								<path style="fill:#422C4F;" d="M527.751,96.48L527.751,96.48c-1.962,0-3.552-1.59-3.552-3.552V86.12
									c0-1.962,1.59-3.552,3.552-3.552l0,0c1.962,0,3.552,1.59,3.552,3.552v6.808C531.303,94.89,529.712,96.48,527.751,96.48z"/>
								<path style="fill:#C7D2D7;" d="M528.434,46.563c-8.211,0-14.891,6.68-14.891,14.89v12.748h6.216V61.454
									c0-4.783,3.892-8.674,8.675-8.674c4.783,0,8.674,3.891,8.674,8.674v16.363c0,4.783-3.891,8.674-8.674,8.674h-4.235v6.216
									h4.235c8.21,0,14.89-6.68,14.89-14.89V61.454C543.323,53.243,536.644,46.563,528.434,46.563z"/>
								<path style="fill:#99A3B0;" d="M513.543,74.201h6.216V61.454l0,0c-1.118,0-2.025,0.907-2.025,2.025v4.131
									c0,1.119-0.907,2.025-2.025,2.025h-2.165V74.201z"/>
								<path style="fill:#99A3B0;" d="M538.592,78.869v-5.921c0-0.82-0.665-1.484-1.484-1.484v6.353
									c0,4.783-3.891,8.674-8.674,8.674h-4.235v3.034h3.737C533.821,89.524,538.592,84.754,538.592,78.869z"/>
							</g>
						</g>
						<g>
							<g>
								<path style="fill:#422C4F;" d="M572.537,96.48L572.537,96.48c-1.962,0-3.552-1.59-3.552-3.552V86.12
									c0-1.962,1.59-3.552,3.552-3.552l0,0c1.962,0,3.552,1.59,3.552,3.552v6.808C576.089,94.89,574.498,96.48,572.537,96.48z"/>
								<path style="fill:#C7D2D7;" d="M573.22,46.563c-8.211,0-14.891,6.68-14.891,14.89v12.748h6.216V61.454
									c0-4.783,3.892-8.674,8.675-8.674c4.783,0,8.674,3.891,8.674,8.674v16.363c0,4.783-3.891,8.674-8.674,8.674h-4.235v6.216
									h4.235c8.21,0,14.89-6.68,14.89-14.89V61.454C588.109,53.243,581.43,46.563,573.22,46.563z"/>
								<path style="fill:#99A3B0;" d="M558.329,74.201h6.216V61.454l0,0c-1.119,0-2.025,0.907-2.025,2.025v4.131
									c0,1.119-0.907,2.025-2.025,2.025h-2.165V74.201z"/>
								<path style="fill:#99A3B0;" d="M583.378,78.869v-5.921c0-0.82-0.664-1.484-1.484-1.484v6.353
									c0,4.783-3.891,8.674-8.674,8.674h-4.235v3.034h3.738C578.607,89.524,583.378,84.754,583.378,78.869z"/>
							</g>
						</g>
						<g>
							<g>
								<path style="fill:#422C4F;" d="M617.323,96.48L617.323,96.48c-1.962,0-3.552-1.59-3.552-3.552V86.12
									c0-1.962,1.59-3.552,3.552-3.552l0,0c1.962,0,3.552,1.59,3.552,3.552v6.808C620.875,94.89,619.284,96.48,617.323,96.48z"/>
								<path style="fill:#C7D2D7;" d="M618.006,46.563c-8.211,0-14.891,6.68-14.891,14.89v12.748h6.216V61.454
									c0-4.783,3.892-8.674,8.675-8.674c4.783,0,8.674,3.891,8.674,8.674v16.363c0,4.783-3.891,8.674-8.674,8.674h-4.235v6.216
									h4.235c8.21,0,14.89-6.68,14.89-14.89V61.454C632.896,53.243,626.216,46.563,618.006,46.563z"/>
								<path style="fill:#99A3B0;" d="M603.115,74.201h6.216V61.454l0,0c-1.119,0-2.025,0.907-2.025,2.025v4.131
									c0,1.119-0.907,2.025-2.025,2.025h-2.165V74.201z"/>
								<path style="fill:#99A3B0;" d="M628.164,78.869v-5.921c0-0.82-0.664-1.484-1.484-1.484v6.353
									c0,4.783-3.891,8.674-8.674,8.674h-4.235v3.034h3.737C623.393,89.524,628.164,84.754,628.164,78.869z"/>
							</g>
						</g>
					</g>
					<path style="fill:#454F6B;" d="M486.022,164.721c4.087-2.769,8.174-5.537,12.261-8.306c1.411-0.956,0.08-3.265-1.344-2.3
						c-4.369,2.96-8.738,5.92-13.107,8.88c-5.79-4.449-11.823-8.583-18.088-12.386c-1.469-0.892-2.81,1.411-1.344,2.3
						c5.918,3.592,11.617,7.49,17.102,11.664c-7.95,5.386-15.899,10.771-23.849,16.157c-1.411,0.956-0.08,3.265,1.344,2.3
						c8.239-5.582,16.478-11.163,24.717-16.745c5.329,4.177,10.453,8.619,15.345,13.344c1.233,1.192,3.12-0.69,1.884-1.884
						C496.18,173.147,491.195,168.813,486.022,164.721z"/>
					<path style="fill:#454F6B;" d="M631.78,205.093c-6.885-3.454-13.769-6.908-20.654-10.361
						c5.276-2.876,10.553-5.752,15.829-8.628c1.506-0.821,0.163-3.122-1.344-2.3c-5.794,3.158-11.588,6.316-17.383,9.474
						c-6.742-3.382-13.483-6.764-20.225-10.146c-1.528-0.767-2.879,1.531-1.344,2.3c6.242,3.132,12.485,6.263,18.728,9.395
						c-6.098,3.323-12.195,6.646-18.292,9.97c-1.506,0.821-0.163,3.122,1.344,2.3c6.615-3.606,13.23-7.211,19.846-10.816
						c7.384,3.704,14.768,7.408,22.151,11.113C631.964,208.16,633.314,205.863,631.78,205.093z"/>
					<path style="fill:#454F6B;" d="M543.325,236.87c-4.616-3.654-9.385-7.076-14.297-10.269c4.698-2.995,9.397-5.989,14.095-8.984
						c1.441-0.919,0.107-3.225-1.345-2.3c-5.08,3.238-10.159,6.475-15.239,9.713c-7.144-4.486-14.578-8.5-22.31-11.986
						c-1.551-0.699-2.907,1.596-1.345,2.3c7.316,3.297,14.383,7.062,21.185,11.259c-6.4,4.079-12.8,8.158-19.2,12.238
						c-1.441,0.919-0.107,3.225,1.345,2.3c6.783-4.324,13.567-8.647,20.35-12.971c5.121,3.275,10.09,6.795,14.876,10.583
						C542.772,239.807,544.669,237.934,543.325,236.87z"/>
				</g>
				<g>
					<g>
						<path style="fill:#454F6B;" d="M422.543,444.35h-14.615c-2.473,0-4.807-1.145-6.321-3.101l-12.771-16.505
							c-2.87-3.71-3.648-8.685-1.864-13.023c8.063-19.608,30.34-19.774,32.723-12.36l10.496,34.683
							C431.745,439.175,427.904,444.35,422.543,444.35z"/>
						<path style="fill:#422C4F;" d="M424.577,438.766c-2.473,0-4.807-1.145-6.32-3.101l-9.169-11.85
							c5.465-2.554,10.596-5.85,15.063-9.736l-3.239-10.703l-18.24,7.813c-0.027-1.707,0.281-3.425,0.951-5.053
							c2.012-4.894,4.91-8.576,8.164-11.232c-7.901-0.624-19.473,3.829-24.813,16.816c-1.784,4.338-1.006,9.314,1.864,13.023
							l12.771,16.505c1.514,1.956,3.847,3.101,6.32,3.101h14.615c3.663,0,6.613-2.417,7.621-5.584H424.577z"/>
					</g>
					<g>
						<path style="fill:#468094;" d="M320.223,170.341h38.621v0.829c58.667,7.267,104.265,61.988,104.265,128.427
							c0,66.439-45.598,121.16-104.265,128.427v0.829h-38.621c-64.933,0-117.572-57.87-117.572-129.256
							S255.29,170.341,320.223,170.341z"/>
						<ellipse style="fill:#6CA8BC;" cx="358.844" cy="299.597" rx="117.572" ry="129.256"/>
						<g>
							<path style="fill:#495375;" d="M452.514,299.597c0-61.171-43.892-111.283-98.872-114.273
								c1.723-0.094,3.457-0.143,5.201-0.143c57.387,0,104.073,51.327,104.073,114.416c0,63.088-46.687,114.415-104.073,114.415
								c-1.744,0-3.478-0.049-5.201-0.143C408.622,410.88,452.514,360.768,452.514,299.597z"/>
							<path style="fill:#FFFFFF;" d="M254.771,299.597c0-61.171,43.893-111.283,98.871-114.273
								c54.979,2.99,98.872,53.101,98.872,114.273c0,61.171-43.892,111.283-98.872,114.273
								C298.664,410.88,254.771,360.768,254.771,299.597z"/>
						</g>
						<g>
							<g>
								
									<rect x="350.032" y="197.14" transform="matrix(-1 -1.224647e-16 1.224647e-16 -1 707.2846 413.2572)" style="fill:#454F6B;" width="7.22" height="18.977"/>
								<polygon style="fill:#454F6B;" points="385.715,225.161 391.968,229.442 399.97,213.007 393.717,208.726 								"/>
								<polygon style="fill:#454F6B;" points="412.804,254.15 416.414,261.565 430.274,252.076 426.664,244.661 								"/>
								
									<rect x="427.762" y="291.596" transform="matrix(6.123234e-17 -1 1 6.123234e-17 132.4455 731.6403)" style="fill:#454F6B;" width="8.562" height="16.004"/>
								<polygon style="fill:#454F6B;" points="416.414,337.63 412.804,345.045 426.664,354.534 430.274,347.119 								"/>
								<polygon style="fill:#454F6B;" points="391.968,369.753 385.715,374.034 393.717,390.469 399.97,386.188 								"/>
								<rect x="350.032" y="383.077" style="fill:#454F6B;" width="7.22" height="18.978"/>
								<polygon style="fill:#454F6B;" points="321.569,374.034 315.316,369.753 307.315,386.188 313.568,390.469 								"/>
								<polygon style="fill:#454F6B;" points="294.48,345.045 290.87,337.63 277.01,347.119 280.621,354.534 								"/>
								
									<rect x="270.961" y="291.596" transform="matrix(-1.836970e-16 1 -1 -1.836970e-16 574.8391 24.3558)" style="fill:#454F6B;" width="8.562" height="16.004"/>
								<polygon style="fill:#454F6B;" points="290.87,261.565 294.48,254.15 280.621,244.661 277.01,252.076 								"/>
								<polygon style="fill:#454F6B;" points="315.316,229.442 321.569,225.161 313.568,208.726 307.315,213.007 								"/>
							</g>
							<polygon style="fill:#99A3B0;" points="355.914,303.934 353.642,299.597 351.371,295.261 314.287,322.868 312.88,329.943 
								318.831,331.541 							"/>
							<g>
								<ellipse style="fill:#454F6B;" cx="353.642" cy="299.597" rx="11.216" ry="13.3"/>
								<polygon style="fill:#454F6B;" points="351.299,295.329 353.642,299.597 355.986,303.865 413.277,271.977 414.913,265.494 
									408.59,263.441 								"/>
								<g>
									<path style="fill:#E8916A;" d="M354.291,293.054h2.784v0.904c1.632,1.138,2.734,3.237,2.734,5.639
										c0,2.403-1.101,4.501-2.734,5.639v0.904h-2.784c-3.042,0-5.517-2.935-5.517-6.543
										C348.774,295.989,351.249,293.054,354.291,293.054z"/>
									<path style="fill:#F0BF6C;" d="M357.076,293.054c3.043,0,5.518,2.935,5.518,6.543s-2.475,6.543-5.518,6.543
										c-3.042,0-5.518-2.935-5.518-6.543S354.033,293.054,357.076,293.054z"/>
								</g>
							</g>
						</g>
					</g>
					<g>
						<path style="fill:#454F6B;" d="M246.721,444.35h14.615c2.473,0,4.807-1.145,6.321-3.101l12.771-16.505
							c2.87-3.71,3.648-8.685,1.864-13.023c-8.063-19.608-30.34-19.774-32.723-12.36l-10.496,34.683
							C237.519,439.175,241.359,444.35,246.721,444.35z"/>
						<path style="fill:#422C4F;" d="M282.291,411.72c-1.921-4.671-4.652-8.227-7.725-10.852c1.008,1.537,1.918,3.239,2.693,5.125
							c1.784,4.338,1.006,9.314-1.864,13.023l-12.771,16.505c-1.513,1.956-3.847,3.101-6.321,3.101h-14.615
							c-0.976,0-1.9-0.176-2.753-0.487c0.799,3.47,3.883,6.214,7.784,6.214h14.615c2.473,0,4.807-1.145,6.321-3.101l12.771-16.505
							C283.297,421.034,284.075,416.059,282.291,411.72z"/>
					</g>
					<g>
						<g>
							<rect x="328.144" y="161.807" style="fill:#F0BF6C;" width="15.828" height="8.531"/>
							<rect x="328.144" y="161.807" style="fill:#422C4F;" width="15.828" height="4.266"/>
						</g>
						<g>
							<path style="fill:#F0BF6C;" d="M388.075,161.807H284.041l1.347-4.878c4.535-16.427,19.479-27.804,36.52-27.804h28.3
								c17.041,0,31.985,11.378,36.52,27.804L388.075,161.807z"/>
							<g>
								<path style="fill:#EBA25D;" d="M373.468,156.929c-3.348-16.427-14.381-27.804-26.963-27.804h-2.295
									c9.818,0,18.428,11.378,21.04,27.804l0.776,4.878h8.436L373.468,156.929z"/>
								<path style="fill:#EBA25D;" d="M342.56,129.125h-1.006c6.618,0,12.422,11.378,14.183,27.804l0.523,4.878h3.7l-0.619-4.878
									C357.256,140.502,350.39,129.125,342.56,129.125z"/>
							</g>
							<g>
								<path style="fill:#FAECCB;" d="M330.402,129.125h-4.992c-6.736,0-13.035,3.142-17.993,8.505
									c-2.085,2.256-0.427,5.925,2.645,5.925l3.513,0c2.834,0,5.398-1.689,6.518-4.292
									C322.827,132.91,326.474,129.125,330.402,129.125z"/>
								<path style="fill:#FAECCB;" d="M299.923,150.041c-0.142,0.377-0.28,0.758-0.412,1.142c-0.799,2.312,0.911,4.728,3.357,4.728
									h9.974c1.753,0,3.23-1.284,3.508-3.014c0.052-0.323,0.105-0.644,0.16-0.962c0.377-2.176-1.286-4.163-3.495-4.163h-9.776
									C301.772,147.772,300.44,148.668,299.923,150.041z"/>
							</g>
						</g>
					</g>
				</g>
				<g>
					<g>
						<path style="fill:#FFFFFF;" d="M146.27,134.856l-2.342,0.667c-6.57,1.87-11.475,7.359-12.597,14.097l-8.082,48.519
							c-1.097,6.587,2.677,13.015,8.964,15.267h0c4.538,1.625,9.595,0.767,13.342-2.266l8.804-7.125L146.27,134.856z"/>
						<path style="opacity:0.3;fill:#495375;" d="M139.488,192.129c-2.812-0.89-6.026-0.397-8.442,1.294
							c-2.416,1.692-3.978,4.544-4.103,7.491c-0.154-1.594-0.318-3.264-0.172-4.859c0.146-1.594,0.603-3.194,1.552-4.483
							c1.27-1.726,3.415-2.773,5.557-2.713C136.022,188.92,138.316,190.334,139.488,192.129z"/>
						<path style="opacity:0.3;fill:#495375;" d="M146.27,141.725v32.811l-3.588-17.898
							C141.628,151.381,142.94,145.927,146.27,141.725L146.27,141.725z"/>
					</g>
					<g>
						<path style="fill:#FFFFFF;" d="M166.494,129.1l-20.224,5.757v45.993l-3.276,30.397c-0.533,4.947,1.09,9.885,4.456,13.55
							l0.737,0.802h66.333l0,0c4.852-2.974,7.93-8.144,8.232-13.827l2.268-42.673l-12-38l-22.5-2.25L166.494,129.1z"/>
						<path style="opacity:0.3;fill:#495375;" d="M206.668,143.683c-5.315,8.833-3.686,18.333-3.686,18.333l1.038,8.958
							l-16.16,5.032c2.16,5.176,5.993,6.576,5.993,6.576l-0.5,4.159l22.543,37.911c4.05-3.056,6.584-7.757,6.856-12.88l2.268-42.673
							l-8.331-26.381L206.668,143.683z"/>
					</g>
					<line style="fill:none;stroke:#222221;stroke-miterlimit:10;" x1="141.712" y1="191.29" x2="142.489" y2="190.85"/>
					<polygon style="opacity:0.3;fill:#495375;" points="166.494,129.1 162.145,148.537 172.77,139.1 184.686,150.975 
						190.52,128.85 					"/>
					<g>
						<g>
							<polygon style="fill:#F0BF9C;" points="168.937,124.183 173.103,135.766 184.686,123.6 181.77,110.672 							"/>
							<path style="fill:#E78882;" d="M170.854,129.512c5.729-2.162,10.337-12.449,11.22-17.493l-0.304-1.347l-12.833,13.511
								L170.854,129.512z"/>
						</g>
						<g>
							<polygon style="fill:#FFFFFF;" points="173.103,135.766 183.103,143.683 190.52,128.85 184.686,123.6 							"/>
							<polygon style="fill:#FFFFFF;" points="169.901,126.863 173.103,135.766 165.058,142.85 166.494,129.1 							"/>
						</g>
					</g>
					<g>
						<polygon style="fill:#CC6164;" points="173.103,135.766 168.394,139.912 169.52,146.227 175.505,146.227 178.817,140.29 
													"/>
						<path style="fill:#A34262;" d="M171.012,137.608l2.091-1.841l5.714,4.524l-3.312,5.937h-5.985l-0.242-1.357h3.507
							c0.771,0,1.474-0.443,1.806-1.14l0.912-1.913c0.351-0.736,0.22-1.611-0.331-2.212l-1.371-1.496
							c-0.437-0.477-1.077-0.713-1.719-0.633L171.012,137.608z"/>
						<polygon style="fill:#CC6164;" points="169.52,146.227 162.145,212.486 169.52,221.1 181.353,212.486 175.505,146.227 						
							"/>
					</g>
					<g>
						<g>
							<path style="fill:#FFFFFF;" d="M204.02,170.975l3.375-1.625l13,11.375l-12.875-22c0,0-5.5-15.875,5.5-27.625l0,0
								c8.797,0.88,16.23,6.903,18.915,15.327l15.673,49.183c2.158,6.773-0.516,14.149-6.513,17.965h0
								c-6.732,4.284-15.609,2.821-20.609-3.398l-22.654-28.171c-0.438-1.813,0.438-3.031,0.438-3.031L204.02,170.975z"/>
							<path style="opacity:0.3;fill:#495375;" d="M235.793,194.198l-15.398-13.473l-1.409-2.407
								C232.395,178.6,234.442,188.422,235.793,194.198z"/>
						</g>
						<g>
							<path style="fill:#454F6B;" d="M181.772,146.516c-0.575-0.35-1.191-0.387-1.376-0.083l-16.712,27.423l2.081,1.268
								l16.712-27.423C182.662,147.397,182.346,146.867,181.772,146.516z"/>
							<g>
								<path style="fill:#F0BF9C;" d="M204.02,170.975c0.084,0.252-2.66-4.472-4.465-7.593c-0.995-1.72-2.556-3.038-4.418-3.731
									l-11.746-4.372c-1.569-0.584-3.323-0.387-4.723,0.532l-6.088,3.993c-2.236,1.467-3.776,3.783-4.262,6.412l-0.801,4.326
									c-0.27,1.459,0.738,2.846,2.208,3.039l0,0c1.197,0.158,2.343-0.533,2.765-1.663l1.655-4.443l3.375-3.375l-1.379,2.633
									c-0.82,1.566-0.558,3.481,0.654,4.769l0,0c0.751,0.798,1.786,1.266,2.881,1.303l5.01,0.17l0,0
									c2.602,3.344,6.49,5.44,10.715,5.773l2.869,0.227l2,1.75C207.77,175.6,204.02,170.975,204.02,170.975z"/>
								<path style="fill:#E78882;" d="M196.353,172.975h-11.667C191.937,176.516,193.437,175.85,196.353,172.975z"/>
							</g>
						</g>
						<path style="opacity:0.2;fill:#495375;" d="M202.982,188.41c2.722-0.237,6.397-1.337,8.481-3.104
							c2.084-1.767,3.602-4.191,4.28-6.837l0.027,0.1c1.356,4.934-1.635,10.191-6.663,11.142c-0.448,0.085-0.878,0.131-1.276,0.139
							l10.055,17.095L202.982,188.41z"/>
					</g>
					<g>
						<polygon style="fill:#6C6FC3;" points="195.247,214.583 146.497,214.583 120.062,150.583 168.812,150.583 						"/>
						<path style="fill:#F0BF9C;" d="M134.316,193.356l5.091-7.016c0.513-0.707,1.173-1.296,1.934-1.726l1.804-1.02
							c1.007-0.569,2.283-0.259,2.917,0.709l0,0c0.56,0.856,0.455,1.986-0.254,2.723l-4.955,5.156l6.57-4.018
							c1.112-0.68,2.564-0.329,3.243,0.784l0,0c0.514,0.842,0.448,1.915-0.163,2.689l-6.247,7.904l5.272-4.433
							c1.034-0.869,2.603-0.581,3.261,0.598l0,0c0.439,0.787,0.341,1.765-0.246,2.449l-6.106,7.112l5.137-4.291
							c1.004-0.839,2.525-0.543,3.142,0.61l0,0c0.428,0.801,0.283,1.787-0.358,2.43l-6.68,6.701c-1.246,1.25-2.979,1.89-4.738,1.751
							l-0.004,0c-2.207-0.175-4.14-1.546-5.033-3.572l-4.223-9.574C132.816,197.361,133.058,195.09,134.316,193.356z"/>
						<polygon style="fill:#E78882;" points="134.316,193.356 136.491,190.359 134.997,186.742 						"/>
					</g>
					<g>
						<path style="fill:#F0BF9C;" d="M144.538,98.453l3.289,13.203c0.989,3.971,2.904,7.652,5.588,10.743v0
							c3.498,4.028,8.933,5.796,14.131,4.599l0,0c3-0.691,5.701-2.324,7.707-4.661l5.085-5.923
							c2.625-3.058,3.768-7.118,3.124-11.097l-2.329-14.373c-1.713-10.572-11.94-17.547-22.408-15.282l0,0
							C148.411,77.894,141.988,88.214,144.538,98.453z"/>
						<path style="fill:#8C404C;" d="M183.002,108.293L183.002,108.293c-1.402-1.235-2.392-2.87-2.835-4.685l-1.641-6.723
							c-2.041,0.369-4.234-0.873-5.656-2.382c-1.422-1.509-2.186-3.547-2.476-5.6c-0.291-2.053-0.142-4.141,0.055-6.206
							c-1.373,3.579-4.197,6.893-7.286,9.161c-1.512,1.11-3.3,2.035-5.171,1.9c-1.871-0.135-3.728-1.684-3.618-3.557
							c-2.212,3.125-4.913,6.722-8.289,8.529c-3.376,1.806-8.113,1.688-10.496-1.31c-1.279-1.609-1.682-3.782-1.488-5.829
							c0.194-2.046,0.932-3.999,1.737-5.89c2.656-6.242,6.276-12.306,11.748-16.316c5.472-4.01,13.092-5.596,19.182-2.606
							c-0.796-1.607-1.239-2.906-2.035-4.513c1.088-0.031,2.243,0.792,2.957,1.614c0.713,0.822,1.034,1.971,0.85,3.044
							c0.318-1.007,1.064-1.806,1.969-2.349c0.906-0.543,2.012-0.742,3.05-0.548c-0.913,1.058-1.997,2.206-2.911,3.264
							c2.541-1.806,6.753-1.962,9.647-0.804c2.67,1.068,4.733,3.342,6.016,5.915c1.284,2.573,1.858,5.442,2.209,8.296
							c0.848,6.886,0.467,13.921-1.119,20.676C186.818,103.857,185.451,107.588,183.002,108.293z"/>
						<g>
							<path style="fill:#F0BF9C;" d="M184.834,99.26c1.444-1.432,3.884-1.99,5.56-0.838c1.012,0.696,1.595,1.882,1.852,3.083
								c0.69,3.226-0.906,6.81-3.765,8.457c-0.977,0.563-2.157,0.913-3.235,0.583c-1.047-0.32-1.826-1.239-2.242-2.251
								C181.84,105.468,182.658,101.418,184.834,99.26z"/>
							<path style="fill:#E78882;" d="M189.599,100.46c-0.555-0.289-1.232-0.288-1.823-0.083c-0.591,0.205-1.102,0.599-1.529,1.056
								c-1.35,1.446-1.885,3.608-1.366,5.517c0.21,0.773,0.687,1.586,1.474,1.736c0.532,0.102,1.09-0.142,1.464-0.534
								c0.374-0.392,0.586-0.913,0.711-1.441c0.185-0.781,0.181-1.658-0.268-2.323c-0.449-0.665-1.445-0.988-2.094-0.516
								c0.063-0.805,0.436-1.609,0.963-2.222C187.658,101.037,188.813,100.644,189.599,100.46z"/>
						</g>
						<path style="fill:#8C404C;" d="M170.231,96.082l-10.384,2.991c-0.086-1.279,0.804-2.598,1.86-3.325
							c1.056-0.727,2.374-0.991,3.656-0.984C166.946,94.772,168.836,95.333,170.231,96.082z"/>
						<path style="fill:#422C4F;" d="M165.592,104.855L165.592,104.855c-0.661,0.19-1.352-0.191-1.543-0.853l-0.378-1.314
							c-0.191-0.661,0.191-1.352,0.853-1.543l0,0c0.661-0.19,1.352,0.191,1.543,0.853l0.378,1.314
							C166.635,103.974,166.253,104.665,165.592,104.855z"/>
						<path style="fill:#8C404C;" d="M145.758,103.131l6.419-1.849c-0.508-1.158-1.516-1.93-2.35-2.113
							c-0.835-0.182-1.6,0.154-2.23,0.711C146.818,100.569,146.126,101.874,145.758,103.131z"/>
						<path style="fill:#422C4F;" d="M151.552,108.899L151.552,108.899c0.457-0.132,0.721-0.609,0.589-1.066l-0.591-2.053
							c-0.132-0.457-0.609-0.721-1.066-0.589l0,0c-0.457,0.132-0.721,0.609-0.589,1.066l0.591,2.053
							C150.617,108.767,151.095,109.031,151.552,108.899z"/>
						<path style="fill:#E78882;" d="M160.761,112.189l-5.72,1.648c0.609,0.699,1.556,1.156,2.465,0.973
							c0.643-0.129,1.22-0.496,1.697-0.947C159.679,113.412,160.375,112.72,160.761,112.189z"/>
						<path style="fill:#FFFFFF;" d="M172.469,112.583c-4.344,2.076-8.688,4.151-13.031,6.227c1.124,1.036,2.916,1.647,4.443,1.724
							c1.527,0.077,3.075-0.396,4.298-1.314C170.207,117.698,171.597,114.964,172.469,112.583z"/>
					</g>
					<g>
						<polygon style="fill:#454F6B;" points="148.187,232.35 142.894,250.683 145.54,264.683 159.52,423.017 191.853,423.017 
							181.353,262.35 183.957,262.35 205.77,423.017 239.02,423.017 223.03,264.85 223.03,250.35 214.52,232.35 						"/>
						<g>
							<path style="fill:#797C99;" d="M180.119,260.118c-0.042,0-0.084-0.005-0.126-0.016c-0.165-0.043-0.298-0.168-0.35-0.331
								c-2.486-7.692-3.943-15.688-4.332-23.765c-0.013-0.276,0.2-0.51,0.476-0.523c0.272-0.018,0.509,0.199,0.523,0.476
								c0.372,7.726,1.732,15.377,4.046,22.755l1.824-1.7c1.815-1.691,2.574-4.234,1.98-6.636
								c-1.576-6.367-2.009-14.29-2.014-14.369c-0.014-0.276,0.197-0.511,0.473-0.526c0.26-0.025,0.511,0.197,0.526,0.473
								c0.004,0.078,0.433,7.909,1.985,14.182c0.681,2.754-0.189,5.669-2.269,7.608l-2.401,2.238
								C180.366,260.072,180.244,260.118,180.119,260.118z"/>
						</g>
						<g>
							<path style="fill:#422C4F;" d="M177.715,286.707l-0.752-10.31C176.813,279.85,177.066,283.308,177.715,286.707z"/>
							<path style="fill:#422C4F;" d="M176.484,262.934c0.27-0.023,0.515,0.186,0.535,0.463l0.183,2.515
								c0.413-0.059,0.825-0.135,1.235-0.229l-0.876,5.056c-0.002,0.011-0.003,0.023-0.005,0.034l1.573,21.575l5.41,18.75
								l-3.186-48.749l-20-1.333l7.309,3.553c2.355,1.145,4.959,1.629,7.544,1.44l-0.185-2.541
								C176.001,263.194,176.209,262.954,176.484,262.934z"/>
							<path style="fill:#797C99;" d="M179.129,292.349l-0.473-1.64c-0.381-1.32-0.683-2.658-0.94-4.002l9.646,132.346
								c0.019,0.264,0.238,0.464,0.498,0.464c0.012,0,0.025,0,0.037-0.001c0.275-0.021,0.482-0.26,0.462-0.535L179.129,292.349z"/>
							<path style="fill:#797C99;" d="M177.202,265.912c-0.331,0.047-0.663,0.074-0.995,0.098l0.757,10.386
								c0.082-1.88,0.271-3.758,0.593-5.623L177.202,265.912z"/>
							<path style="fill:#454F6B;" d="M177.019,263.397c-0.02-0.276-0.265-0.486-0.535-0.463c-0.275,0.021-0.482,0.26-0.462,0.535
								l0.185,2.541c0.332-0.024,0.664-0.051,0.995-0.098L177.019,263.397z"/>
							<path style="fill:#454F6B;" d="M179.129,292.349l-1.573-21.575c-0.321,1.864-0.51,3.742-0.593,5.623l0.752,10.31
								c0.257,1.344,0.559,2.681,0.94,4.002L179.129,292.349z"/>
						</g>
					</g>
					<g>
						<g>
							<path style="fill:#BD6C67;" d="M158.022,442.037h-25.639c-0.231,0.736-0.362,1.512-0.362,2.313h23.783
								c3.737,0,7.399-1.047,10.571-3.022l3.98-2.478l-5.543,2C162.633,441.636,160.337,442.037,158.022,442.037z"/>
							<polygon style="fill:#BD6C67;" points="170.353,444.35 184.52,444.35 185.729,438.85 170.353,438.85 							"/>
							<path style="fill:#8C404C;" d="M184.52,423.017h-25l-11.807,10.067c-0.787,0.671-1.701,1.177-2.687,1.489l-7.603,2.403
								c-2.453,0.775-4.299,2.698-5.041,5.062h25.639c2.314,0,4.611-0.402,6.788-1.187l5.543-2h15.375
								C188.395,434.183,184.52,423.017,184.52,423.017z"/>
						</g>
						<path style="fill:#422C4F;" d="M159.52,423.017h25l-9.206,2.48c-5.889,1.586-12.121,1.337-17.864-0.715l0,0L159.52,423.017z"
							/>
					</g>
					<g>
						<polygon style="fill:#422C4F;" points="230.187,444.35 222.103,444.35 220.603,439.1 229.853,438.6 						"/>
						<g>
							<polygon style="fill:#BD6C67;" points="230.187,444.35 234.687,444.35 235.895,438.85 229.853,438.6 							"/>
							<path style="fill:#BD6C67;" d="M220.816,441.6h-23.67l-0.293,2.75h21.199c4.609,0,8.961-2.121,11.801-5.75l-0.725,0.483
								C226.667,440.724,223.775,441.6,220.816,441.6z"/>
							<path style="fill:#8C404C;" d="M233.52,423.017h-21.667l-5.366,8.638c-0.949,1.527-2.397,2.679-4.099,3.259
								c-2.867,0.978-4.907,3.53-5.227,6.542l-0.015,0.144h23.67c2.959,0,5.851-0.876,8.313-2.517l0.725-0.483l6.042,0.25
								C239.895,432.6,233.52,423.017,233.52,423.017z"/>
						</g>
						<path style="fill:#422C4F;" d="M211.853,423.017h21.667l-7.825,2.269c-4.905,1.422-10.137,1.243-14.933-0.513l0,0
							L211.853,423.017z"/>
					</g>
					<g>
						<rect x="148.187" y="225.6" style="fill:#422C4F;" width="66.333" height="6.75"/>
						<rect x="154.358" y="225.6" style="fill:#454F6B;" width="2.725" height="6.75"/>
						<rect x="164.733" y="225.6" style="fill:#454F6B;" width="2.725" height="6.75"/>
						
							<rect x="204.283" y="225.6" transform="matrix(-1 -1.224647e-16 1.224647e-16 -1 411.2903 457.9498)" style="fill:#454F6B;" width="2.725" height="6.75"/>
						
							<rect x="190.957" y="225.6" transform="matrix(-1 -1.224647e-16 1.224647e-16 -1 384.6389 457.9498)" style="fill:#454F6B;" width="2.725" height="6.75"/>
						<path style="fill:#F0BF6C;" d="M183.28,233.475h-8.146c-1.657,0-3-1.343-3-3v-2.822c0-1.657,1.343-3,3-3h8.146
							c1.657,0,3,1.343,3,3v2.822C186.28,232.132,184.937,233.475,183.28,233.475z"/>
					</g>
				</g>
				<g>
					<g>
						<path style="fill:#495375;" d="M634.225,231.394H463.155c-3.314,0-6-2.686-6-6v-13.342c0-3.314,2.686-6,6-6h171.069
							c3.314,0,6,2.686,6,6v13.342C640.225,228.708,637.539,231.394,634.225,231.394z"/>
						<g>
							<path style="fill:#797C99;" d="M504.335,227.218v-16.989c0-2.307,1.87-4.177,4.177-4.177h-15.997
								c-2.707,0-4.901,2.194-4.901,4.901v15.54c0,2.707,2.194,4.901,4.901,4.901h15.997
								C506.205,231.394,504.335,229.525,504.335,227.218z"/>
						</g>
					</g>
					<g>
						<path style="fill:#495375;" d="M634.225,444.653H463.155c-3.314,0-6-2.686-6-6v-13.342c0-3.314,2.686-6,6-6h171.069
							c3.314,0,6,2.686,6,6v13.342C640.225,441.967,637.539,444.653,634.225,444.653z"/>
						<g>
							<path style="fill:#797C99;" d="M504.335,440.477v-16.989c0-2.307,1.87-4.177,4.177-4.177h-15.997
								c-2.707,0-4.901,2.194-4.901,4.901v15.54c0,2.707,2.194,4.901,4.901,4.901h15.997
								C506.205,444.653,504.335,442.783,504.335,440.477z"/>
						</g>
					</g>
					<g>
						<g>
							<path style="fill:#9EE6E0;" d="M525.939,343.353h0.182c3.335,0,6.039-3.134,6.039-7v-11v-11c0-3.866-2.704-7-6.039-7h-0.182
								c-25.757,0-46.636-24.203-46.636-54.059v-21.899h-11.044v21.899c0,29.856,24.203,54.059,54.059,54.059h0.211
								c3.866,0,7,3.134,7,7v11v11c0,3.866-3.134,7-7,7h-0.211c-29.856,0-54.059,24.203-54.059,54.059v21.899h11.044v-21.899
								C479.302,367.556,500.182,343.353,525.939,343.353z"/>
							<path style="fill:#E9FFFF;" d="M568.063,314.353c0-3.866,3.134-7,7-7l0,0c29.856,0,54.059-24.203,54.059-54.059v-21.899
								h-11.044v21.899c0,29.856-20.88,54.059-46.636,54.059l0,0c-3.335,0-6.039,3.134-6.039,7v11v11c0,3.866,2.704,7,6.039,7l0,0
								c25.757,0,46.636,24.203,46.636,54.059v21.899h11.044v-21.899c0-29.856-24.203-54.059-54.059-54.059l0,0
								c-3.866,0-7-3.134-7-7v-11V314.353z"/>
							<path style="fill:#D1F4F5;" d="M571.441,343.353L571.441,343.353c-3.335,0-6.039-3.134-6.039-7v-11v-11
								c0-3.866,2.704-7,6.039-7l0,0c25.757,0,46.636-24.203,46.636-54.059v-21.899H479.302v21.899
								c0,29.856,20.88,54.059,46.636,54.059h0.182c3.335,0,6.039,3.134,6.039,7v11v11c0,3.866-2.704,7-6.039,7h-0.182
								c-25.757,0-46.636,24.203-46.636,54.059v21.899h138.776v-21.899C618.078,367.556,597.198,343.353,571.441,343.353z"/>
						</g>
						<path style="fill:#6CA8BC;" d="M575.063,377.353c-13.233,0-24-10.767-24-24v-39c0-13.233,10.767-24,24-24
							c11.965,0,22.618-5.705,29.398-14.532H492.92c6.78,8.827,17.432,14.532,29.398,14.532h0.211c13.233,0,24,10.767,24,24v39
							c0,13.233-10.767,24-24,24h-0.211c-20.435,0-37.059,16.624-37.059,37.059v4.9h126.862v-4.9
							C612.121,393.977,595.497,377.353,575.063,377.353z"/>
						<g>
							<path style="opacity:0.6;fill:#FFFFFF;" d="M502.55,365.487h11.487c1.243,0,2.364-0.768,2.8-1.932
								c1.298-3.471,2.792-6.591,4.445-9.28c1.22-1.986-0.242-4.537-2.573-4.537h-7.138c-0.657,0-1.302,0.206-1.822,0.607
								c-3.633,2.798-6.908,6.352-9.713,10.505C498.703,362.823,500.168,365.487,502.55,365.487z"/>
							<path style="opacity:0.6;fill:#FFFFFF;" d="M511.292,245.488c0-4.418-3.582-8-8-8h-5.734c-4.418,0-8,3.582-8,8v0.333
								c0,4.418,3.582,8,8,8h5.734c4.42,0,8.003-3.59,8-8.011C511.292,245.604,511.292,245.488,511.292,245.488z"/>
							<path style="opacity:0.6;fill:#FFFFFF;" d="M539.78,325.353v-11c0-3.866-1.457-7-3.255-7h-0.098
								c-11.306,0-20.864-16.057-24.022-38.145c-0.568-3.972-3.918-6.95-7.93-6.95h-4.643c-5.247,0-9.135,4.983-7.739,10.041
								c5.654,20.479,20.176,35.054,37.207,35.054h0.155c2.842,0,5.146,3.134,5.146,7v11v7.046c0,1.43,1.159,2.589,2.589,2.589l0,0
								c1.43,0,2.589-1.159,2.589-2.589V325.353z"/>
							<path style="opacity:0.6;fill:#FFFFFF;" d="M511.292,397.411c0-3.777,0.181-7.464,0.523-11.022
								c0.396-4.106-2.838-7.652-6.964-7.652h-7.258c-3.356,0-6.278,2.373-6.877,5.675c-0.756,4.164-1.158,8.517-1.158,12.999v5.091
								c0,3.866,3.134,7,7,7h7.734c3.866,0,7-3.134,7-7V397.411z"/>
						</g>
					</g>
				</g>
			</g>
			<g>
				<path style="fill:#6CA8BC;" d="M687.268,446.817L687.268,446.817c0-1.356-1.1-2.456-2.456-2.456H114.39
					c-1.356,0-2.456,1.099-2.456,2.456l0,0c0,1.356,1.1,2.456,2.456,2.456h43.857c1.356,0,2.456,1.1,2.456,2.456l0,0
					c0,1.356-1.1,2.456-2.456,2.456H114.39c-1.356,0-2.456,1.1-2.456,2.456l0,0c0,1.356,1.099,2.456,2.456,2.456h496.255
					c1.356,0,2.456-1.1,2.456-2.456l0,0c0-1.356-1.1-2.456-2.456-2.456H522.95c-1.356,0-2.456-1.1-2.456-2.456l0,0
					c0-1.356,1.099-2.456,2.456-2.456h161.862C686.168,449.273,687.268,448.174,687.268,446.817z"/>
				<path style="fill:#6CA8BC;" d="M70.89,449.273h33.255c1.356,0,2.456-1.099,2.456-2.456l0,0c0-1.356-1.1-2.456-2.456-2.456H70.89
					c-1.356,0-2.456,1.099-2.456,2.456l0,0C68.434,448.174,69.534,449.273,70.89,449.273z"/>
				<path style="fill:#6CA8BC;" d="M89.057,459.097h8.922c1.356,0,2.456-1.1,2.456-2.456l0,0c0-1.356-1.1-2.456-2.456-2.456h-8.922
					c-1.356,0-2.456,1.1-2.456,2.456l0,0C86.601,457.997,87.701,459.097,89.057,459.097z"/>
				<path style="fill:#6CA8BC;" d="M645.872,459.097h-25.338c-1.356,0-2.456-1.1-2.456-2.456l0,0c0-1.356,1.099-2.456,2.456-2.456
					h25.338c1.356,0,2.456,1.1,2.456,2.456l0,0C648.328,457.997,647.228,459.097,645.872,459.097z"/>
			</g>
		</g>
	</g>
</g>
</svg>
