<?xml version="1.0" encoding="utf-8"?>
<!-- Generator: Adobe Illustrator 27.1.0, SVG Export Plug-In . SVG Version: 6.00 Build 0)  -->
<svg version="1.1" id="Capa_1" xmlns="http://www.w3.org/2000/svg" xmlns:xlink="http://www.w3.org/1999/xlink" x="0px" y="0px"
	 viewBox="0 0 64 64" style="enable-background:new 0 0 64 64;" xml:space="preserve">
<style type="text/css">
	.st0{fill:#007EA7;}
</style>
<g transform="translate(0.000000,64.000000) scale(0.100000,-0.100000)">
	<path class="st0" d="M92,600c-65-40-72-64-72-260c0-157,2-178,20-208c36-58,71-72,189-72c103,0,104,0,86,20c-15,17-31,20-96,20
		C71,100,60,117,60,339c0,175,7,204,51,227c36,18,335,20,374,2c40-18,55-57,55-146c0-66,3-82,20-97c20-18,20-17,20,86
		c0,118-14,153-72,189c-30,18-51,20-208,20S122,618,92,600z"/>
	<path class="st0" d="M237,504c-4-4-7-27-7-50v-43l-47-3l-48-3v-65v-65l47-3l47-3l3-47c2-36,7-48,21-50c16-3,18,3,15,65l-3,68l-47,3
		c-46,3-48,5-48,32s2,29,48,32l47,3l3,48c3,45,5,47,32,47s29-2,32-47l3-48l68-3c62-3,68-1,65,15c-2,14-14,19-50,21l-47,3l-3,47
		l-3,47l-60,3C271,510,241,508,237,504z"/>
	<path class="st0" d="M365,267c-9-21,70-242,87-245c10-2,23,15,37,52c21,50,27,56,77,77c37,14,54,27,52,37s-45,29-118,54
		C372,285,371,285,365,267z M494,201l49-17l-30-13c-19-8-36-25-44-44l-13-30l-17,49C410,229,411,230,494,201z"/>
</g>
</svg>
